<svg viewBox="0 0 96 96" xmlns="http://www.w3.org/2000/svg" xmlns:xlink="http://www.w3.org/1999/xlink" id="Icons_Lecturer" overflow="hidden"><path d="M48 19.5C52.4 19.5 56 15.9 56 11.5 56 7.1 52.4 3.5 48 3.5 43.6 3.5 40 7.1 40 11.5 40 15.9 43.6 19.5 48 19.5" fill="#0070C0"/><path d="M68 49.5 72 37.5 24 37.5 28 49.5 34 49.5 38 88.5 32 88.5 32 92.5 64 92.5 64 88.5 58 88.5 62 49.5Z" fill="#0070C0"/><path d="M64.2 28.9C64 28.1 63.6 27.3 63 26.7 60.6 24.7 57.8 23.3 54.6 22.3 52.4 21.9 50.2 21.5 48 21.5 45.8 21.5 43.6 21.9 41.4 22.5 38.2 23.3 35.4 24.9 33 26.9 32.4 27.5 32 28.3 31.8 29.1L30.8 33.5 65.3 33.5 64.2 28.9Z" fill="#0070C0"/></svg>