<svg viewBox="0 0 96 96" xmlns="http://www.w3.org/2000/svg" xmlns:xlink="http://www.w3.org/1999/xlink" id="Icons_TongueFaceOutline" overflow="hidden"><path d="M69.73 34C69.1771 33.0454 67.9556 32.7188 67 33.27L55 40.27C54.0445 40.8242 53.7193 42.0481 54.2735 43.0035 54.4483 43.3048 54.6987 43.5552 55 43.73L67 50.73C67.3051 50.9033 67.6492 50.9962 68 51 69.1046 50.998 69.9984 50.101 69.9965 48.9965 69.9952 48.2847 69.6157 47.6272 69 47.27L60 42 69 36.73C69.9546 36.1771 70.2812 34.9556 69.73 34Z" fill="#FF0000"/><path d="M67.46 59.41C66.5842 58.7406 65.3319 58.9061 64.66 59.78 57.5993 68.9811 44.4165 70.7162 35.2155 63.6555 33.7599 62.5385 32.457 61.2356 31.34 59.78 30.6662 58.9046 29.4104 58.7412 28.535 59.415 27.6596 60.0888 27.4962 61.3446 28.17 62.22 32.8877 68.4006 40.2246 72.0191 48 72L48.23 72C49.2935 76.8555 54.0917 79.9295 58.9472 78.866 63.8026 77.8026 66.8767 73.0043 65.8132 68.1489 65.6114 67.2277 65.2662 66.344 64.79 65.53 65.8808 64.5161 66.8843 63.4122 67.79 62.23 68.4783 61.3661 68.3359 60.1078 67.472 59.4195 67.468 59.4163 67.464 59.4132 67.46 59.41ZM57 75C54.8767 74.9886 52.9922 73.6373 52.3 71.63 55.6051 71.0644 58.7597 69.8291 61.57 68 61.8557 68.6279 62.0024 69.3102 62 70 62 72.7614 59.7614 75 57 75Z" fill="#FF0000"/><path d="M29 50.73 41 43.73C41.9555 43.1758 42.2807 41.9519 41.7265 40.9965 41.5517 40.6952 41.3013 40.4448 41 40.27L29 33.27C28.0213 32.758 26.8128 33.1364 26.3008 34.1151 25.819 35.036 26.1229 36.1724 27 36.73L36 42 27 47.27C26.0445 47.8242 25.7193 49.0481 26.2735 50.0035 26.6307 50.6193 27.2882 50.9987 28 51 28.3508 50.9962 28.6949 50.9033 29 50.73Z" fill="#FF0000"/><path d="M48 14C66.7777 14 82 29.2223 82 48 82 66.7777 66.7777 82 48 82 29.2223 82 14 66.7777 14 48 14 29.2223 29.2223 14 48 14M48 10C27.0132 10 10 27.0132 10 48 10 68.9868 27.0132 86 48 86 68.9868 86 86 68.9868 86 48 86 27.0132 68.9868 10 48 10Z" fill="#FF0000"/></svg>