<svg viewBox="0 0 96 96" xmlns="http://www.w3.org/2000/svg" xmlns:xlink="http://www.w3.org/1999/xlink" id="Icons_Blackboard" overflow="hidden"><style>
.MsftOfcResponsive_Fill_0b6bb1 {
 fill:#0B6BB1; 
}
</style>
<path d="M88.7 43.8C88.5 43.6 88.2 43.4 88 43.2L88 24C88 21.8 86.2 20 84 20L12 20C9.8 20 8 21.8 8 24L8 72C8 74.2 9.8 76 12 76L84 76C86.2 76 88 74.2 88 72L88 53 88.7 52.3C89.8 51.2 90.5 49.7 90.5 48.1 90.5 46.4 89.9 44.9 88.7 43.8ZM82 70 14 70 14 26 82 26 82 42.5C81.4 42.8 80.8 43.2 80.2 43.7L78 46 78 30 18 30 18 66 78 66 78 62.1C78.8 61.8 79.6 61.3 80.2 60.7L82 59 82 70ZM50.2 49.9C50.8 52.6 51.1 54.2 49.7 55.2 48.3 56.2 46.7 55.2 45.9 54.6 40 50.8 31.4 42.2 31.1 41.9 30.3 41.1 30.3 39.9 31.1 39.1 31.9 38.3 33.1 38.3 33.9 39.1 34 39.2 40.8 45.9 46.1 50 45.7 48.3 45.3 46.1 45 43.3 44.6 40 46.1 39 47 38.6 48.6 38 51.2 38.4 57.9 44.9 61.3 48.2 65 52.4 66.1 54.3 66.7 55.2 66.4 56.5 65.4 57 65.1 57.2 64.7 57.3 64.4 57.3 63.7 57.3 63.1 57 62.7 56.3 60 51.9 51.9 44.5 49 42.8 49.3 45.8 49.8 48.2 50.2 49.9ZM85.9 49.4 77.4 57.9C76.6 58.7 75.4 58.7 74.6 57.9 73.8 57.1 73.8 55.9 74.6 55.1L83.1 46.6C83.9 45.8 85.1 45.8 85.9 46.6 86.7 47.4 86.7 48.6 85.9 49.4Z" class="MsftOfcResponsive_Fill_0b6bb1" fill="#0B6BB1"/></svg>